<svg width="42" height="32" viewBox="0 0 42 32" fill="none" xmlns="http://www.w3.org/2000/svg">
<path d="M41.166 11.1517C41.1695 11.9105 40.953 12.6541 40.5427 13.2924C40.1323 13.9307 39.5457 14.4364 38.854 14.7482L34.2556 16.829L31.6867 17.985L24.391 21.2989C23.2284 21.8405 21.9614 22.1211 20.6789 22.1211C19.3964 22.1211 18.1294 21.8405 16.9668 21.2989L9.64537 17.985L7.07646 16.829L4.50754 15.6473V26.7451C4.68988 26.8596 4.8399 27.0188 4.94332 27.2077C5.04674 27.3965 5.10012 27.6087 5.09839 27.824V30.47C5.10005 30.6391 5.06795 30.8069 5.00399 30.9635C4.94003 31.1201 4.84548 31.2623 4.72587 31.3819C4.60627 31.5015 4.46401 31.5961 4.30743 31.66C4.15084 31.724 3.98307 31.7561 3.81394 31.7544H2.63223C2.46309 31.7561 2.29532 31.724 2.13873 31.6601C1.98213 31.5961 1.83987 31.5016 1.72027 31.3819C1.60066 31.2623 1.50611 31.1201 1.44215 30.9635C1.37819 30.8069 1.34611 30.6391 1.34778 30.47V27.824C1.34607 27.6087 1.39947 27.3965 1.50289 27.2077C1.6063 27.0188 1.7563 26.8596 1.93863 26.7451V14.928C1.93693 14.7789 1.96306 14.6308 2.01569 14.4913C1.40988 14.1125 0.91858 13.5759 0.594449 12.9391C0.270317 12.3024 0.125573 11.5894 0.17573 10.8766C0.225887 10.1639 0.469054 9.4782 0.879169 8.8931C1.28928 8.308 1.85089 7.84553 2.50379 7.55525L16.9668 1.00451C18.1317 0.471307 19.3978 0.195312 20.6789 0.195312C21.96 0.195312 23.2261 0.471307 24.391 1.00451L38.854 7.55525C39.5457 7.86709 40.1323 8.37276 40.5426 9.01106C40.953 9.64936 41.1695 10.3929 41.166 11.1517ZM25.4442 23.6367C23.9514 24.3305 22.3251 24.69 20.6789 24.69C19.0327 24.69 17.4064 24.3305 15.9135 23.6367L7.07646 19.6548V22.9431C7.07928 23.9306 7.30753 24.9045 7.74382 25.7904C8.1801 26.6764 8.81291 27.451 9.594 28.0553C12.7773 30.4879 16.6725 31.8058 20.6789 31.8058C24.6853 31.8058 28.5804 30.4879 31.7637 28.0553C32.5415 27.4497 33.1704 26.6742 33.6023 25.7881C34.0342 24.902 34.2577 23.9289 34.2556 22.9432V19.6293L32.7399 20.3229L25.4442 23.6367Z" fill="#6B8DDD"/>
</svg>
