<svg width="28" height="28" viewBox="0 0 28 28" fill="none" xmlns="http://www.w3.org/2000/svg">
<path d="M19.8332 2.33325C20.7614 2.33325 21.6517 2.702 22.308 3.35838C22.9644 4.01476 23.3332 4.90499 23.3332 5.83325V24.4999C23.3332 24.7111 23.2759 24.9184 23.1674 25.0996C23.0588 25.2808 22.9031 25.4291 22.7169 25.5288C22.5307 25.6284 22.3209 25.6756 22.1099 25.6654C21.8989 25.6551 21.6947 25.5878 21.519 25.4706L18.8147 23.6681L17.158 25.3248C16.9571 25.5256 16.6898 25.6463 16.4063 25.6641C16.1228 25.6819 15.8425 25.5957 15.618 25.4216L15.5083 25.3248L13.9998 23.8174L12.4913 25.3248C12.2904 25.5256 12.0232 25.6463 11.7396 25.6641C11.4561 25.6819 11.1758 25.5957 10.9513 25.4216L10.8417 25.3248L9.18384 23.6681L6.48067 25.4706L6.4585 25.4846L6.3955 25.5196L6.36284 25.5394L6.29984 25.5662L6.2415 25.5931L6.18434 25.6106L6.11434 25.6328L6.05367 25.6433L5.98717 25.6561L5.88917 25.6631L5.85884 25.6666H5.83317L5.776 25.6631H5.7305L5.71534 25.6596H5.69667L5.64884 25.6503L5.6045 25.6444L5.587 25.6386L5.566 25.6363L5.52634 25.6234L5.47967 25.6117L5.4575 25.6036L5.44 25.5989L5.40617 25.5838L5.3595 25.5662L5.335 25.5534L5.31984 25.5476L5.28717 25.5289L5.24517 25.5079L5.22884 25.4963L5.20784 25.4846L5.1635 25.4531L5.13784 25.4368L5.12617 25.4263L5.10284 25.4099L5.05034 25.3621L5.03634 25.3528L5.00834 25.3248L4.9675 25.2793L4.94417 25.2559L4.936 25.2431L4.92317 25.2291L4.88584 25.1766L4.8625 25.1474L4.8485 25.1252L4.8135 25.0623L4.79367 25.0296L4.76684 24.9666L4.74 24.9083C4.72441 24.867 4.71117 24.825 4.70034 24.7823L4.68867 24.7157L4.677 24.6539L4.6665 24.4999V5.83325C4.6665 4.90499 5.03525 4.01476 5.69163 3.35838C6.34801 2.702 7.23825 2.33325 8.1665 2.33325H19.8332ZM17.4998 16.3333H15.1665C14.8571 16.3333 14.5603 16.4562 14.3415 16.675C14.1228 16.8938 13.9998 17.1905 13.9998 17.4999C13.9998 17.8093 14.1228 18.1061 14.3415 18.3249C14.5603 18.5437 14.8571 18.6666 15.1665 18.6666H17.4998C17.8093 18.6666 18.106 18.5437 18.3248 18.3249C18.5436 18.1061 18.6665 17.8093 18.6665 17.4999C18.6665 17.1905 18.5436 16.8938 18.3248 16.675C18.106 16.4562 17.8093 16.3333 17.4998 16.3333ZM17.4998 11.6666H10.4998C10.1904 11.6666 9.89367 11.7895 9.67488 12.0083C9.45609 12.2271 9.33317 12.5238 9.33317 12.8333C9.33317 13.1427 9.45609 13.4394 9.67488 13.6582C9.89367 13.877 10.1904 13.9999 10.4998 13.9999H17.4998C17.8093 13.9999 18.106 13.877 18.3248 13.6582C18.5436 13.4394 18.6665 13.1427 18.6665 12.8333C18.6665 12.5238 18.5436 12.2271 18.3248 12.0083C18.106 11.7895 17.8093 11.6666 17.4998 11.6666ZM17.4998 6.99992H10.4998C10.1904 6.99992 9.89367 7.12284 9.67488 7.34163C9.45609 7.56042 9.33317 7.85717 9.33317 8.16658C9.33317 8.476 9.45609 8.77275 9.67488 8.99154C9.89367 9.21034 10.1904 9.33325 10.4998 9.33325H17.4998C17.8093 9.33325 18.106 9.21034 18.3248 8.99154C18.5436 8.77275 18.6665 8.476 18.6665 8.16658C18.6665 7.85717 18.5436 7.56042 18.3248 7.34163C18.106 7.12284 17.8093 6.99992 17.4998 6.99992Z" fill="#5225FC"/>
</svg>
